<svg xmlns="http://www.w3.org/2000/svg" width="80" height="72" fill="none"><g clip-path="url(#a)"><path fill="url(#b)" d="M66.48 14.01H13.26v57.12h53.22V14Z"/><path fill="url(#c)" d="M13.04 14.01c.06 0 .13.03.22.06V71.1c-4.12.32-7.6-.72-10.36-3.38A8.92 8.92 0 0 1 0 61.1V24.22c0-4.1 2.2-7.08 6.27-9.1 2.09-1.03 4.41-1.18 6.77-1.1Z"/><path fill="#fff" d="M57.18 14h4.98v57.1H17.57V14.03h5.3v-.6l-.01-6.14a4.45 4.45 0 0 1 1.48-3.66 4.06 4.06 0 0 1 2.73-1.02l9.54-.01h16.06c1.4 0 2.57.46 3.48 1.52.74.85 1.01 1.85 1.01 2.97v6.47c0 .12 0 .26.02.45Zm-28.57 0h8.15l14.22.01c.37 0 .46-.12.46-.48-.02-1.6 0-3.2 0-4.81 0-.13-.02-.26-.04-.4H28.6V14Z"/><mask id="d" width="46" height="70" x="17" y="2" maskUnits="userSpaceOnUse" style="mask-type:alpha"><path fill="#F7F9FC" d="M57.18 14h4.98v57.1H17.57V14.03h5.3v-.6l-.01-6.14a4.45 4.45 0 0 1 1.48-3.66 4.06 4.06 0 0 1 2.73-1.02l9.54-.01h16.06c1.4 0 2.57.46 3.48 1.52.74.85 1.01 1.85 1.01 2.97v6.47c0 .12 0 .26.02.45Zm-28.57 0h8.15l14.22.01c.37 0 .46-.12.46-.48-.02-1.6 0-3.2 0-4.81 0-.13-.02-.26-.04-.4H28.6V14Z"/></mask><g mask="url(#d)"><path fill="url(#e)" d="M58.1 0H21v14.02h37.1V0Z"/></g><path fill="url(#f)" d="M80 24.08c0-3.78-2.06-6.6-5.73-8.65-2.26-1.25-4.82-1.5-7.45-1.44-.4.01-.34.22-.34.44v19.81l-.01 34.81v2.07c1.65.05 3.22.06 4.76-.3 5.21-1.23 8.76-5.12 8.76-9.7.02-12.33.01-24.7.01-37.04Z"/><path fill="url(#g)" d="M44.22 46.79v7.24c0 .77-.39 1.17-1.14 1.17h-6.22c-.7 0-1.08-.43-1.08-1.16V46.8h-7.16c-.9 0-1.26-.36-1.26-1.25v-5.92c0-.9.36-1.26 1.25-1.26h7.16v-7.21c0-.84.38-1.21 1.23-1.21h5.91c.93 0 1.29.35 1.29 1.3v7.13h.4l6.82.01c.83 0 1.2.37 1.2 1.2v5.95c0 .9-.36 1.26-1.25 1.26h-7.15Z"/></g><defs><linearGradient id="b" x1="13.26" x2="66.47" y1="42.57" y2="42.57" gradientUnits="userSpaceOnUse"><stop stop-color="#B0F4FF"/><stop offset="1" stop-color="#69DCFC"/></linearGradient><linearGradient id="c" x1="0" x2="13.26" y1="42.57" y2="42.57" gradientUnits="userSpaceOnUse"><stop stop-color="#6CBCFC"/><stop offset="1" stop-color="#458DFC"/></linearGradient><linearGradient id="e" x1="21" x2="58.09" y1="7.01" y2="7.01" gradientUnits="userSpaceOnUse"><stop stop-color="#6CBCFC"/><stop offset="1" stop-color="#458DFC"/></linearGradient><linearGradient id="f" x1="66.47" x2="80" y1="42.57" y2="42.57" gradientUnits="userSpaceOnUse"><stop stop-color="#6CBCFC"/><stop offset="1" stop-color="#458DFC"/></linearGradient><linearGradient id="g" x1="27.37" x2="52.63" y1="42.58" y2="42.58" gradientUnits="userSpaceOnUse"><stop stop-color="#6CBCFC"/><stop offset="1" stop-color="#458DFC"/></linearGradient><clipPath id="a"><path fill="#fff" d="M0 0h80v71.15H0z"/></clipPath></defs></svg>