<svg xmlns="http://www.w3.org/2000/svg" width="68" height="95" fill="none"><g clip-path="url(#a)"><path fill="url(#b)" d="M64.97 0H2.33A2.31 2.31 0 0 0 0 2.3v90.4C0 93.99 1.04 95 2.33 95h62.64a2.31 2.31 0 0 0 2.33-2.3V2.3c0-1.27-1.05-2.3-2.33-2.3Z"/><path fill="#fff" d="M60.86 4.1H6.43c-1.25 0-2.26 1-2.26 2.24V81.1a2.25 2.25 0 0 0 2.26 2.24h54.43c1.26 0 2.27-1 2.27-2.24V6.34a2.25 2.25 0 0 0-2.27-2.24Z"/><path fill="url(#c)" d="M44.77 39.64H22.53a1.83 1.83 0 0 1-1.85-1.82V15.84c0-1 .83-1.82 1.85-1.82h22.24c1.02 0 1.85.82 1.85 1.82v21.97c0 1-.83 1.83-1.85 1.83Z"/><path fill="#fff" d="M33.65 92.55a3.4 3.4 0 0 0 3.42-3.38 3.4 3.4 0 0 0-3.42-3.39 3.4 3.4 0 0 0-3.43 3.39 3.4 3.4 0 0 0 3.43 3.38Z"/><path fill="url(#d)" d="M53.04 51.02H14.26c-.98 0-1.79-.8-1.79-1.76 0-.97.8-1.76 1.79-1.76h38.77c.98 0 1.78.79 1.78 1.76 0 .96-.8 1.76-1.77 1.76Z"/><path fill="url(#e)" d="M46.47 60.76H13.61c-.63 0-1.13-.5-1.13-1.1v-.13c0-.62.51-1.11 1.13-1.11h32.86c.63 0 1.13.5 1.13 1.11v.12c0 .61-.5 1.11-1.13 1.11Z" opacity=".6"/><path fill="url(#f)" d="M40.21 66.96H13.5c-.56 0-1.03-.46-1.03-1.02v-.33c0-.56.47-1.01 1.03-1.01h26.7c.57 0 1.03.45 1.03 1v.34c0 .56-.46 1.02-1.02 1.02Z" opacity=".3"/><path fill="url(#g)" d="M43.58 72.7H13.56c-.6 0-1.08-.49-1.08-1.07v-.22c0-.58.49-1.06 1.08-1.06h30.02c.6 0 1.08.48 1.08 1.06v.22c0 .57-.49 1.06-1.08 1.06Z" opacity=".6"/><path fill="#fff" d="M33.72 26.12a4.03 4.03 0 1 0 0-8.07 4.03 4.03 0 0 0 0 8.07Zm0 2.02c-2.7 0-8.07 1.35-8.07 4.03v1.02c0 .55.46 1.01 1.01 1.01H40.8c.55 0 1.01-.46 1.01-1.01v-1.02c-.02-2.67-5.4-4.03-8.08-4.03Z"/></g><defs><linearGradient id="b" x1="4.08" x2="67.34" y1="45.03" y2="50.45" gradientUnits="userSpaceOnUse"><stop stop-color="#6CBCFC"/><stop offset="1" stop-color="#458DFC"/></linearGradient><linearGradient id="c" x1="18.67" x2="48.47" y1="19.29" y2="34.67" gradientUnits="userSpaceOnUse"><stop stop-color="#B0F4FF"/><stop offset=".09" stop-color="#A3F0FE"/><stop offset=".3" stop-color="#8AE7FD"/><stop offset=".52" stop-color="#77E1FD"/><stop offset=".75" stop-color="#6DDDFC"/><stop offset="1" stop-color="#69DCFC"/></linearGradient><linearGradient id="d" x1="54.81" x2="12.48" y1="49.26" y2="49.26" gradientUnits="userSpaceOnUse"><stop stop-color="#6CBCFC"/><stop offset="1" stop-color="#458DFC"/></linearGradient><linearGradient id="e" x1="47.6" x2="12.48" y1="59.59" y2="59.59" gradientUnits="userSpaceOnUse"><stop stop-color="#6CBCFC"/><stop offset="1" stop-color="#458DFC"/></linearGradient><linearGradient id="f" x1="41.23" x2="12.48" y1="65.78" y2="65.78" gradientUnits="userSpaceOnUse"><stop stop-color="#6CBCFC"/><stop offset="1" stop-color="#458DFC"/></linearGradient><linearGradient id="g" x1="44.66" x2="12.48" y1="71.51" y2="71.51" gradientUnits="userSpaceOnUse"><stop stop-color="#6CBCFC"/><stop offset="1" stop-color="#458DFC"/></linearGradient><clipPath id="a"><path fill="#fff" d="M0 0h67.29v95H0z"/></clipPath></defs></svg>