<svg xmlns="http://www.w3.org/2000/svg" width="68" height="95" fill="none"><g clip-path="url(#a)"><path fill="url(#b)" d="M67.71 90.45c0 2.48-2 4.5-4.48 4.5L5.22 95a4.5 4.5 0 0 1-4.5-4.48L.65 6.88c0-2.48 2-4.5 4.48-4.5l53.26-.05h4.75c2.47 0 4.49 2 4.49 4.48l.09 83.64Z"/><path fill="#fff" d="m61.7 89.97-54.96.06a2.41 2.41 0 0 1-2.42-2.42L4.24 9.77a2.41 2.41 0 0 1 2.41-2.42l54.96-.05a2.41 2.41 0 0 1 2.41 2.4l.08 77.85a2.4 2.4 0 0 1-2.4 2.42Z"/><path fill="url(#c)" d="m53.98 13.71-40.09.05a2.41 2.41 0 0 1-2.41-2.4V4.68a2.41 2.41 0 0 1 2.4-2.42l40.1-.04a2.41 2.41 0 0 1 2.4 2.4l.01 6.69c0 1.33-1.08 2.4-2.41 2.4ZM13.88 3.5c-.65 0-1.18.53-1.18 1.18v6.68c0 .65.54 1.18 1.18 1.18l40.1-.04c.65 0 1.18-.53 1.18-1.18l-.01-6.68c0-.65-.53-1.18-1.18-1.18l-40.1.04Z"/><path fill="url(#d)" d="m52.84 5.12-37.43.04a.74.74 0 0 1-.75-.75V.8c0-.42.34-.75.75-.75L52.84 0c.41 0 .74.33.74.75v3.62c.01.41-.32.75-.74.75Z"/><path fill="#58D6F4" d="m15.44 5.16 37.37-.04c.43 0 .78-.35.78-.78V2.56l-38.93.04v1.78c0 .43.35.78.78.78ZM28.58 81.21l-3.24-19.57-2.62 8.52h-7.5a.82.82 0 0 1-.81-.81c0-.46.36-.82.82-.82l6.29-.01 4.32-14.02 3.23 19.61 4.2-13.47 2.23 6.39 5.02-12.18 4.89 19.31 1.84-6.14h5.39c.45 0 .82.36.82.81 0 .46-.37.82-.82.82l-4.17.01-3.2 10.66-5.12-20.27-4.78 11.59-2.02-5.77-4.77 15.34Z"/><path fill="url(#e)" d="M23.02 43.49H12.48a3.1 3.1 0 0 1-3.09-3.08l-.02-14.73a3.1 3.1 0 0 1 3.09-3.1H23a3.1 3.1 0 0 1 3.09 3.08l.02 14.73a3.1 3.1 0 0 1-3.09 3.1ZM12.45 23.48a2.2 2.2 0 0 0-2.19 2.2l.02 14.73a2.2 2.2 0 0 0 2.2 2.19H23a2.2 2.2 0 0 0 2.2-2.2l-.02-14.74a2.2 2.2 0 0 0-2.2-2.19l-10.54.01Z"/><path fill="url(#f)" d="M17.74 40.66c4.98 0 6.53-2.89 6.53-2.89-.22-.28-.5-.53-.88-.77-1.31-.86-2.37-1.22-2.8-1.59-.45-.35-.7-.88-.7-.88l-.28.17s-.16-.57-.07-1.44c0 0 .39-.1.68-1.42.46.09 1.01-1.09.75-1.52-.16-.28-.36-.26-.5-.19.14-.59.78-3.85-2.74-3.85-3.51 0-2.88 3.26-2.73 3.85-.14-.07-.34-.1-.5.2-.26.42.3 1.6.76 1.5.3 1.33.69 1.42.69 1.42.1.86-.08 1.44-.08 1.44l-.27-.17s-.25.52-.7.88c-.44.37-1.49.74-2.8 1.6-.38.24-.67.5-.89.77 0 .02 1.56 2.9 6.53 2.89Z"/><path fill="url(#g)" d="m50.56 27.28-20.3.02a.69.69 0 0 1-.68-.69v-.11c0-.38.3-.69.69-.69l20.29-.02c.38 0 .68.3.68.68v.12a.7.7 0 0 1-.68.69Z"/><path fill="url(#h)" d="m43.1 31.14-12.83.02a.69.69 0 0 1-.7-.69v-.12c0-.38.32-.68.7-.68l12.82-.02c.39 0 .7.3.7.69v.11c0 .38-.31.7-.7.7Z"/><path fill="url(#i)" d="m57.55 35.73-27.27.04a.69.69 0 0 1-.7-.69v-.12c0-.38.31-.68.7-.68l27.27-.04c.39 0 .7.3.7.7v.1a.7.7 0 0 1-.7.7Z" opacity=".6"/><path fill="url(#j)" d="m56.97 48.64-45.5.05a.71.71 0 0 1-.72-.7v-.08c0-.39.32-.7.71-.7l45.5-.06c.4 0 .72.32.72.71v.07c0 .4-.33.71-.71.71Z" opacity=".6"/><path fill="url(#k)" d="m57.55 40.25-27.27.03a.69.69 0 0 1-.7-.69v-.12c0-.38.31-.68.7-.68l27.27-.04c.39 0 .7.31.7.7v.1c0 .39-.31.7-.7.7Z" opacity=".6"/></g><defs><linearGradient id="b" x1="-8.65" x2="77" y1="34.75" y2="62.58" gradientUnits="userSpaceOnUse"><stop stop-color="#6CBCFC"/><stop offset=".17" stop-color="#5EABFC"/><stop offset=".41" stop-color="#509AFC"/><stop offset=".67" stop-color="#4890FC"/><stop offset="1" stop-color="#458DFC"/></linearGradient><linearGradient id="c" x1="-4.59" x2="56.39" y1="-21.38" y2="7.99" gradientUnits="userSpaceOnUse"><stop stop-color="#CFE9FF"/><stop offset="1" stop-color="#A1D6FB"/></linearGradient><linearGradient id="d" x1="14.65" x2="53.59" y1="2.58" y2="2.58" gradientUnits="userSpaceOnUse"><stop stop-color="#B0F4FF"/><stop offset="1" stop-color="#69DCFC"/></linearGradient><linearGradient id="e" x1="14.77" x2="24.55" y1="29.21" y2="41.83" gradientUnits="userSpaceOnUse"><stop stop-color="#6CBCFC"/><stop offset="1" stop-color="#458DFC"/></linearGradient><linearGradient id="f" x1="13.71" x2="23.49" y1="30.03" y2="42.66" gradientUnits="userSpaceOnUse"><stop stop-color="#B0F4FF"/><stop offset=".1" stop-color="#A1EFFE"/><stop offset=".3" stop-color="#88E7FD"/><stop offset=".51" stop-color="#77E1FD"/><stop offset=".73" stop-color="#6CDDFC"/><stop offset="1" stop-color="#69DCFC"/></linearGradient><linearGradient id="g" x1="29.58" x2="51.24" y1="26.55" y2="26.56" gradientUnits="userSpaceOnUse"><stop stop-color="#6CBCFC"/><stop offset="1" stop-color="#458DFC"/></linearGradient><linearGradient id="h" x1="29.58" x2="43.78" y1="30.4" y2="30.4" gradientUnits="userSpaceOnUse"><stop stop-color="#6CBCFC"/><stop offset="1" stop-color="#458DFC"/></linearGradient><linearGradient id="i" x1="29.59" x2="58.24" y1="35.01" y2="35.01" gradientUnits="userSpaceOnUse"><stop stop-color="#6CBCFC"/><stop offset="1" stop-color="#458DFC"/></linearGradient><linearGradient id="j" x1="10.75" x2="57.68" y1="47.93" y2="47.93" gradientUnits="userSpaceOnUse"><stop stop-color="#6CBCFC"/><stop offset="1" stop-color="#458DFC"/></linearGradient><linearGradient id="k" x1="29.59" x2="58.24" y1="39.52" y2="39.52" gradientUnits="userSpaceOnUse"><stop stop-color="#6CBCFC"/><stop offset="1" stop-color="#458DFC"/></linearGradient><clipPath id="a"><path fill="#fff" d="M.64 0h67.08v95H.64z"/></clipPath></defs></svg>