<svg xmlns="http://www.w3.org/2000/svg" width="62" height="85" fill="none"><g clip-path="url(#a)"><path fill="url(#b)" d="m61.86 26.48-.2 39.8-.03 7.7c-.03 6.12-5.84 11.05-13 11.02l-35.74-.16C5.75 84.79-.03 79.81 0 73.68l.22-47.5c.02-4.95 3.85-9.14 9.1-10.53V11.8l43.56.2-.01 3.87c5.22 1.45 9 5.65 8.99 10.62Z"/><path fill="url(#c)" d="M56.12 1.77v.35l-.03 4.16-.03 4.07v.5a1.4 1.4 0 0 1-1.4 1.38h-.34l-2.1-.01-2.33-.02-2.1-.01-2.32-.02-2.14-.03-2.32-.02-2.1-.01-2.34-.02-2.12-.02-2.32-.01-2.1-.03L27.7 12l-2.1-.02-2.34-.01-2.12-.02-2.3-.01-2.11-.02-2.32-.02-2.12-.01-2.32-.02-2.12-.01h-.34a1.4 1.4 0 0 1-1.39-1.4v-.38l.07-8.2v-.5C6.2.62 6.84 0 7.62 0h.33l4.44.03 4.44.03 2.13.02 2.31.02 2.11.01 4.43.05 2.31.02 2.11.01 2.32.02 2.1.01 2.32.02 2.1.02 2.32.01L45.5.3l2.35.03 2.1.02 2.32.01 2.13.02h.33a1.4 1.4 0 0 1 1.4 1.4Z"/><path fill="url(#d)" d="m56.12 2.14-.03 4.14-.03 4.07-1.9-.02-2.52-.01-2.32-.02h-2.54l-2.32-.01-2.52-.02-2.31-.02h-2.54l-2.32-.01-2.54-.02-2.3-.01H27.4l-2.31-.02-2.54-.02-2.32-.01H17.7l-2.32-.02-2.54-.01-2.31-.02H8l-1.87-.02.07-8.2 4.44.01 4.84.03 2.31.02 2.54.01h2.32l4.84.04 2.54.01h2.31l2.54.02 2.3.01 2.54.02h2.32l2.54.02 2.3.01 2.54.02h2.31l2.54.01 1.85.02Z"/><path fill="#F7F9FC" d="M61.81 34.88.18 34.6.05 61.92l61.63.3.13-27.34Z"/><path fill="#FBFCF7" d="M61.82 34.88.2 34.6l-.03 4.92 61.64.3.02-4.93Z"/><path fill="url(#e)" d="m24.21 45.58-3.97-.02.01-3.99-5.48-.01-.01 3.97-3.98-.01-.03 5.46 3.98.01-.02 4 5.48.01.01-3.97 3.98.01.03-5.46Z"/><path fill="url(#f)" d="m51.24 46.9-19.71-.09a.96.96 0 0 1-.96-.96v-.45c0-.52.43-.95.96-.95l19.7.1c.53 0 .96.42.96.95v.45c0 .52-.43.96-.95.96Z"/><path fill="url(#g)" d="m51.22 52.77-19.7-.1a.96.96 0 0 1-.97-.96v-.44c0-.53.43-.96.96-.96l19.71.1c.53 0 .96.43.96.95v.45c0 .53-.43.96-.96.96Z" opacity=".5"/><path fill="#1A6FB5" d="M6.13 1.77v.35l.03 4.16.04 4.05v.5c0 .77.64 1.39 1.4 1.39h.34l2.12-.02 2.32-.01 2.1-.02 2.32-.02 2.11-.01 2.32-.02 2.1-.01 2.32-.02 2.12-.02 2.32-.01 2.1-.02 2.32-.01 2.11-.02 2.32-.02 2.12-.01 2.32-.02 2.1-.01 2.32-.02 2.11-.02 2.32-.01 2.12-.02h.34a1.4 1.4 0 0 0 1.39-1.4v-.37C31.37 11.18 7.52.37 7.52.37c-.76.01-1.39.64-1.39 1.4Z" opacity=".08"/></g><defs><linearGradient id="b" x1="0" x2="57.14" y1="11.33" y2="90.19" gradientUnits="userSpaceOnUse"><stop stop-color="#6CBCFC"/><stop offset="1" stop-color="#458DFC"/></linearGradient><linearGradient id="c" x1="-629.93" x2="-27.6" y1="-39.93" y2="2.02" gradientUnits="userSpaceOnUse"><stop stop-color="#B0F4FF"/><stop offset=".05" stop-color="#A9F2FF"/><stop offset=".29" stop-color="#8DE8FE"/><stop offset=".52" stop-color="#79E1FD"/><stop offset=".76" stop-color="#6DDDFC"/><stop offset="1" stop-color="#69DCFC"/></linearGradient><linearGradient id="d" x1="6.14" x2="56.13" y1="6.11" y2="6.11" gradientUnits="userSpaceOnUse"><stop stop-color="#B0F4FF"/><stop offset=".05" stop-color="#A9F2FF"/><stop offset=".29" stop-color="#8DE8FE"/><stop offset=".52" stop-color="#79E1FD"/><stop offset=".76" stop-color="#6DDDFC"/><stop offset="1" stop-color="#69DCFC"/></linearGradient><linearGradient id="e" x1="21.98" x2="12.6" y1="43.1" y2="53.91" gradientUnits="userSpaceOnUse"><stop stop-color="#6CBCFC"/><stop offset="1" stop-color="#458DFC"/></linearGradient><linearGradient id="f" x1="52.38" x2="28.89" y1="45.67" y2="45.67" gradientUnits="userSpaceOnUse"><stop stop-color="#6CBCFC"/><stop offset="1" stop-color="#458DFC"/></linearGradient><linearGradient id="g" x1="30.55" x2="52.18" y1="51.53" y2="51.53" gradientUnits="userSpaceOnUse"><stop stop-color="#6CBCFC"/><stop offset="1" stop-color="#458DFC"/></linearGradient><clipPath id="a"><path fill="#fff" d="M0 0h61.86v85H0z"/></clipPath></defs></svg>