<svg xmlns="http://www.w3.org/2000/svg" width="92" height="90" fill="none"><g clip-path="url(#a)"><path fill="url(#b)" d="m56.22 43.32-9.08 8.66L8.8 88.57a5.18 5.18 0 0 1-7.44-.27 5.3 5.3 0 0 1 .57-7.63l45.2-36.84 4.99-4.06 4.1 3.55Z"/><path fill="#3A81D6" fill-opacity=".8" d="m46.74 52.42-8.93 8.52-.83-8.75 4.9-3.99 4.86 4.22Z"/><path fill="url(#c)" d="M91.98 29.9c0 16.53-13.3 29.93-29.69 29.93a29.59 29.59 0 0 1-24.74-13.4 29.93 29.93 0 0 1-4.94-16.52C32.61 13.39 45.91 0 62.3 0c7.4 0 14.17 2.72 19.36 7.23a29.95 29.95 0 0 1 10.33 22.68Z"/><path fill="#fff" d="M62.3 53.2a23.21 23.21 0 0 0 23.12-23.3A23.21 23.21 0 0 0 62.3 6.6a23.21 23.21 0 0 0-23.12 23.3 23.21 23.21 0 0 0 23.12 23.3Z"/><path fill="#1A6FB5" fill-opacity=".5" d="M91.98 29.9c0 16.53-13.3 29.93-29.69 29.93a29.59 29.59 0 0 1-24.74-13.4c33.48-2.74 42.3-31.31 44.11-39.2a29.98 29.98 0 0 1 10.32 22.68Z" opacity=".06"/><path fill="url(#d)" d="M62.3 29.96c2.68 0 4.85-2.2 4.85-4.9s-2.17-4.9-4.86-4.9a4.88 4.88 0 0 0-4.85 4.9c0 2.7 2.16 4.9 4.85 4.9Zm0 2.45c-3.25 0-9.72 1.64-9.72 4.9v1.22c0 .68.55 1.23 1.22 1.23H70.8c.67 0 1.22-.55 1.22-1.23V37.3c-.02-3.24-6.5-4.9-9.74-4.9Z"/></g><defs><linearGradient id="b" x1="5.67" x2="53.92" y1="84.33" y2="40.79" gradientUnits="userSpaceOnUse"><stop stop-color="#67C3F3"/><stop offset="1" stop-color="#5A98F2"/></linearGradient><linearGradient id="c" x1="50.02" x2="72.78" y1="2.11" y2="52.91" gradientUnits="userSpaceOnUse"><stop stop-color="#67C3F3"/><stop offset="1" stop-color="#5A98F2"/></linearGradient><linearGradient id="d" x1="55.27" x2="72.92" y1="28.39" y2="36.94" gradientUnits="userSpaceOnUse"><stop stop-color="#B0F4FF"/><stop offset=".07" stop-color="#A6F1FF"/><stop offset=".29" stop-color="#8BE8FD"/><stop offset=".52" stop-color="#78E1FD"/><stop offset=".75" stop-color="#6DDDFC"/><stop offset="1" stop-color="#69DCFC"/></linearGradient><clipPath id="a"><path fill="#fff" d="M0 0h91.98v90H0z"/></clipPath></defs></svg>