<svg xmlns="http://www.w3.org/2000/svg" width="70" height="95" fill="none"><path fill="url(#a)" d="M69.42 4.31v86.4a4.3 4.3 0 0 1-4.3 4.3H4.3A4.33 4.33 0 0 1 0 90.72V4.3A4.3 4.3 0 0 1 4.31 0h60.82a4.3 4.3 0 0 1 4.3 4.31Z"/><path fill="url(#b)" d="M65 7.95v79.1c0 2.19-1.7 3.95-3.79 3.95H7.8A3.88 3.88 0 0 1 4 87.05V7.95C4 5.76 5.7 4 7.79 4h53.44A3.86 3.86 0 0 1 65 7.95Z"/><path fill="url(#c)" d="M26.87 18.25v3.93a.5.5 0 0 1-.5.5h-4.82a.5.5 0 0 0-.5.51v4.82a.5.5 0 0 1-.5.5H16.6a.5.5 0 0 1-.5-.5v-4.82a.5.5 0 0 0-.51-.5h-4.8a.5.5 0 0 1-.5-.5v-3.94c0-.28.22-.5.5-.5h4.81a.5.5 0 0 0 .51-.5v-4.82c0-.29.22-.51.5-.51h3.94c.28 0 .5.22.5.5v4.82c0 .29.22.5.5.5h4.8c.3 0 .51.23.51.51Z"/><path fill="url(#d)" d="M58.58 39.68H10.85a.57.57 0 0 1-.57-.57v-1.82c0-.31.25-.57.57-.57h47.73c.31 0 .56.26.56.57v1.82c-.01.31-.25.57-.56.57Z" opacity=".5"/><path fill="url(#e)" d="M58.58 17.05H34.89a.57.57 0 0 1-.57-.57v-1.8c0-.31.26-.56.57-.56h23.69c.31 0 .56.25.56.56v1.82a.57.57 0 0 1-.56.55Z"/><path fill="url(#f)" d="M51.57 24.72H34.89a.57.57 0 0 1-.57-.56v-1.82c0-.31.26-.57.57-.57h16.68c.31 0 .56.26.56.57v1.82c-.01.31-.25.56-.56.56Z" opacity=".5"/><path fill="url(#g)" d="M58.58 48.3H10.85a.57.57 0 0 1-.57-.57V45.9c0-.31.25-.57.57-.57h47.73c.31 0 .56.26.56.57v1.82c-.01.31-.25.57-.56.57Z" opacity=".5"/><path fill="url(#h)" d="M58.58 56.92H10.85a.57.57 0 0 1-.57-.57v-1.82c0-.31.25-.56.57-.56h47.73c.31 0 .56.25.56.56v1.84a.57.57 0 0 1-.56.55Z" opacity=".5"/><path fill="url(#i)" d="M58.58 65.55H10.85a.57.57 0 0 1-.57-.56v-1.82c0-.32.25-.57.57-.57h47.73c.31 0 .56.25.56.57v1.82c-.01.31-.25.56-.56.56Z" opacity=".5"/><path fill="url(#j)" d="M58.58 74.17H10.85a.57.57 0 0 1-.57-.56v-1.82c0-.32.25-.57.57-.57h47.73c.31 0 .56.25.56.57v1.82c-.01.31-.25.56-.56.56Z" opacity=".5"/><path fill="url(#k)" d="M58.58 82.8H10.85a.57.57 0 0 1-.57-.57V80.4c0-.31.25-.57.57-.57h47.73c.31 0 .56.26.56.57v1.82c-.01.31-.25.57-.56.57Z" opacity=".5"/><path fill="#1A6FB5" fill-opacity=".4" d="M69.42 4.31v86.4a4.3 4.3 0 0 1-4.3 4.3H4.3A4.33 4.33 0 0 1 0 90.72v-1.5C37.09 73.89 54.36 15.16 58.26 0h6.85a4.3 4.3 0 0 1 4.31 4.31Z" opacity=".1"/><defs><linearGradient id="a" x1="95" x2="-6" y1="126" y2="-5.5" gradientUnits="userSpaceOnUse"><stop offset=".31" stop-color="#5BA7FC"/><stop offset="1" stop-color="#69B8FC"/></linearGradient><linearGradient id="b" x1="8.62" x2="57.94" y1="7.05" y2="78.03" gradientUnits="userSpaceOnUse"><stop offset=".31" stop-color="#fff"/><stop offset="1" stop-color="#fff"/></linearGradient><linearGradient id="c" x1="10" x2="25" y1="9.5" y2="34" gradientUnits="userSpaceOnUse"><stop stop-color="#B0F4FF"/><stop offset=".37" stop-color="#80E4FD"/><stop offset="1" stop-color="#6CDDFC"/></linearGradient><linearGradient id="d" x1="10.29" x2="59.14" y1="38.21" y2="38.21" gradientUnits="userSpaceOnUse"><stop stop-color="#6CBCFC"/><stop offset="1" stop-color="#458DFC"/></linearGradient><linearGradient id="e" x1="34.32" x2="59.14" y1="15.58" y2="15.58" gradientUnits="userSpaceOnUse"><stop stop-color="#6CBCFC"/><stop offset="1" stop-color="#458DFC"/></linearGradient><linearGradient id="f" x1="34.32" x2="52.13" y1="23.26" y2="23.26" gradientUnits="userSpaceOnUse"><stop stop-color="#6CBCFC"/><stop offset="1" stop-color="#458DFC"/></linearGradient><linearGradient id="g" x1="10.29" x2="59.14" y1="46.83" y2="46.83" gradientUnits="userSpaceOnUse"><stop stop-color="#6CBCFC"/><stop offset="1" stop-color="#458DFC"/></linearGradient><linearGradient id="h" x1="10.29" x2="59.14" y1="55.46" y2="55.46" gradientUnits="userSpaceOnUse"><stop stop-color="#6CBCFC"/><stop offset="1" stop-color="#458DFC"/></linearGradient><linearGradient id="i" x1="10.29" x2="59.14" y1="64.08" y2="64.08" gradientUnits="userSpaceOnUse"><stop stop-color="#6CBCFC"/><stop offset="1" stop-color="#458DFC"/></linearGradient><linearGradient id="j" x1="10.29" x2="59.14" y1="72.71" y2="72.71" gradientUnits="userSpaceOnUse"><stop stop-color="#6CBCFC"/><stop offset="1" stop-color="#458DFC"/></linearGradient><linearGradient id="k" x1="10.29" x2="59.14" y1="81.33" y2="81.33" gradientUnits="userSpaceOnUse"><stop stop-color="#6CBCFC"/><stop offset="1" stop-color="#458DFC"/></linearGradient></defs></svg>